# This file uses centimeters as units for non-parametric coordinates.

mtllib SlingshotWood_low.mtl
g default
v -1.291972 3.164100 0.117656
v -1.148326 3.210670 -0.018214
v -1.237994 3.178584 -0.141390
v -1.404058 3.126997 -0.021328
v -1.197700 3.196895 0.081588
v -1.356673 3.144961 -0.099421
v -1.189056 3.202184 -0.108416
v -1.286086 3.181224 -0.014783
v -1.381776 3.129610 0.089250
v -1.364154 2.879390 0.139302
v -1.383514 2.875344 -0.035905
v -1.299456 2.907274 -0.147839
v -1.151529 2.957591 -0.192753
v -1.081066 2.996401 -0.138560
v -1.058856 2.994197 -0.020325
v -1.104908 2.975108 0.093291
v -1.208568 2.937712 0.189097
v -0.879928 2.442542 0.096857
v -0.839840 2.467513 -0.034157
v -0.862867 2.442839 -0.185993
v -0.944371 2.437501 -0.251023
v -1.112188 2.365582 -0.200124
v -1.205027 2.288096 -0.043744
v -1.174137 2.296987 0.154735
v -0.993664 2.383518 0.217282
v -0.787987 1.436198 0.151920
v -0.656092 1.547145 0.213408
v -0.834372 1.386369 0.021505
v -0.768058 1.384689 -0.182749
v -0.583640 1.489859 -0.279325
v -0.466772 1.576331 -0.205838
v -0.430453 1.648197 -0.058315
v -0.539077 1.608007 0.158480
v -0.644224 1.036696 -0.181356
v -0.694060 0.977662 0.034975
v -0.655176 1.044943 0.182924
v -0.519697 1.186219 0.257146
v -0.363343 1.338909 0.240625
v -0.413137 1.234667 -0.292536
v -0.304350 1.324942 -0.193633
v -0.266851 1.407575 -0.069124
v -0.263010 1.421292 0.125617
v -0.455720 1.643302 0.072351
v -0.844112 2.464764 0.025235
v -1.064144 2.994613 0.032114
v -1.155315 3.218795 0.028714
v -1.234765 3.200780 -0.067002
v -1.313162 3.159432 -0.125543
v -1.240499 2.928269 -0.179408
v -1.042652 2.397792 -0.236792
v -0.694977 1.432274 -0.252816
v -0.541745 1.159608 -0.290554
v -0.160037 1.392071 0.125052
v -0.163842 1.373700 -0.043916
v -0.159906 1.295923 -0.178088
v 0.007541 1.474911 0.145924
v -0.048988 1.460741 -0.042104
v 0.000812 1.392483 -0.162732
v 0.279039 2.007644 0.118579
v 0.217754 2.011669 -0.054619
v 0.270671 1.953904 -0.197451
v 0.503577 2.681734 0.135531
v 0.467020 2.678090 -0.042976
v 0.545689 2.644243 -0.170444
v 0.718877 3.391957 -0.060722
v 0.830532 3.338524 -0.155302
v 0.747726 3.387197 0.076531
v 0.838543 3.371319 0.144519
v 0.644545 2.621071 0.246479
v 0.395449 1.969739 0.225604
v 0.121124 1.403543 0.238079
v -0.164038 1.289957 0.239948
v -0.163007 1.068490 0.290548
v -0.445479 0.867720 0.275255
v -0.626563 0.784384 0.048481
v -0.548329 0.807962 -0.189316
v -0.160272 0.936432 -0.348574
v -0.158165 1.172697 -0.294322
v 0.113021 1.339421 -0.251833
v 0.263549 1.200796 -0.221542
v 0.393227 1.887552 -0.245637
v 0.505884 1.831471 -0.200538
v 0.666313 2.614180 -0.198599
v 0.184603 1.230859 0.273806
v 0.524438 1.870191 0.245707
v 0.617284 1.812417 0.172117
v 0.302909 1.192175 0.230784
v 0.372441 1.184051 0.103492
v 0.637968 1.794224 0.051606
v 0.586522 1.785609 -0.087556
v 0.343587 1.178304 -0.076517
v 0.799790 2.568727 -0.162767
v 0.881775 2.543797 -0.063750
v 0.905069 2.510136 0.094101
v 0.855644 2.527398 0.194714
v 0.768404 2.558891 0.249211
v 0.903497 3.318818 -0.150215
v 0.975842 3.301641 -0.110718
v 1.022658 3.295736 -0.041504
v 1.028726 3.293998 0.050859
v 0.972089 3.330604 0.127390
v 0.896960 3.349111 0.159113
v -0.636596 2.025058 -0.046263
v -0.657463 1.982974 -0.211595
v -0.751256 1.937670 -0.282247
v -0.861148 1.886389 -0.254253
v -0.933989 1.845237 -0.195761
v -1.016285 1.808338 -0.009737
v -0.968833 1.842451 0.153777
v -0.813302 1.942431 0.219000
v -0.690630 2.005866 0.138122
v -0.633284 2.033275 0.052337
v 0.576271 3.048983 -0.057563
v 0.605449 3.050387 0.120858
v 0.734989 3.009093 0.220512
v 0.841908 2.964486 0.238310
v 0.943697 2.935265 0.187649
v 1.007582 2.916999 0.076209
v 0.986835 2.921494 -0.063736
v 0.917836 2.951610 -0.170825
v 0.789339 2.966354 -0.198834
v 0.672726 3.000717 -0.184165
v 0.873977 3.368934 -0.012645
v 0.174891 0.811153 -0.241169
v 0.210219 0.791538 0.050100
v 0.100919 0.865098 0.269091
v -0.182356 0.669802 0.288194
v -0.556426 0.585582 0.072679
v -0.506305 0.611534 -0.164173
v -0.169037 0.628753 -0.337995
v 0.107182 0.617758 -0.244516
v 0.161061 0.644692 0.040216
v 0.008616 0.099144 -0.242786
v -0.199356 0.084381 -0.346773
v -0.449944 0.081019 -0.214643
v -0.559737 0.102812 0.050945
v -0.299376 0.138214 0.317059
v 0.024405 0.155538 0.154454
v -0.540482 -0.518455 -0.245270
v -0.680835 -0.368963 0.094251
v -0.280654 -0.505762 -0.266574
v -0.141744 -0.488832 -0.066724
v -0.143495 -0.463456 0.175153
v -0.396470 -0.363747 0.375204
v -0.636458 -1.003018 0.125947
v -0.325159 -0.992974 0.400461
v -0.069213 -0.995305 0.248090
v -0.073388 -1.010311 -0.022940
v -0.215737 -1.012125 -0.228740
v -0.464032 -1.012655 -0.200517
v -0.173240 -1.752838 -0.192835
v -0.364023 -1.662928 0.155542
v -0.159700 -1.672307 0.342709
v 0.079740 -1.674328 0.303584
v 0.171230 -1.741117 0.026074
v 0.020650 -1.759703 -0.184951
v -0.317614 -1.387873 -0.197954
v -0.083598 -1.387849 -0.232533
v 0.068910 -1.375162 -0.002946
v 0.024681 -1.334161 0.290871
v -0.244663 -1.338633 0.389514
v -0.505343 -1.339855 0.142409
v -0.730354 -0.541934 0.115341
v -0.533378 -0.636152 -0.249715
v -0.271326 -0.623579 -0.245293
v -0.127457 -0.610620 -0.055980
v -0.138565 -0.589655 0.186079
v -0.382952 -0.531046 0.384878
v -0.031676 -1.847310 0.057147
v 0.065858 -1.529500 0.307132
v 0.152280 -1.581847 0.008705
v -0.011281 -1.602069 -0.229699
v -0.242080 -1.603395 -0.207470
v -0.429968 -1.529738 0.151365
v -0.197936 -1.533550 0.372602
vt 0.741420 0.038799
vt 0.784489 0.051609
vt 0.767823 0.188849
vt 0.726404 0.179446
vt 0.821656 0.052293
vt 0.804555 0.195351
vt 0.750945 0.353849
vt 0.710131 0.344092
vt 0.709918 0.026247
vt 0.690581 0.167784
vt 0.793890 0.357068
vt 0.734126 0.442010
vt 0.695792 0.432736
vt 0.675263 0.337888
vt 0.771098 0.450510
vt 0.706478 0.523203
vt 0.674355 0.514981
vt 0.661489 0.422838
vt 0.730900 0.533783
vt 0.638583 0.505588
vt 0.530990 0.160224
vt 0.517149 0.002521
vt 0.550298 0.007519
vt 0.559406 0.158479
vt 0.592374 0.004534
vt 0.593182 0.152976
vt 0.546486 0.328745
vt 0.520694 0.329295
vt 0.631003 0.003246
vt 0.626611 0.156980
vt 0.583037 0.334518
vt 0.548893 0.420139
vt 0.520725 0.422361
vt 0.500949 0.164535
vt 0.496293 0.330853
vt 0.612954 0.334986
vt 0.579426 0.420078
vt 0.556506 0.505270
vt 0.533279 0.512612
vt 0.607189 0.423232
vt 0.579134 0.504515
vt 0.599638 0.503111
vt 0.896675 0.353855
vt 0.912987 0.372960
vt 0.870817 0.387917
vt 0.877667 0.345914
vt 0.911124 0.395683
vt 0.899725 0.412889
vt 0.839548 0.366342
vt 0.862278 0.349546
vt 0.862831 0.424196
vt 0.881464 0.422759
vt 0.832727 0.400304
vt 0.657176 0.161162
vt 0.675046 0.022159
vt 0.646094 0.337312
vt 0.635432 0.420467
vt 0.620278 0.504048
vt 0.487019 0.000000
vt 0.464700 0.175234
vt 0.457317 0.031179
vt 0.465269 0.337387
vt 0.495090 0.426262
vt 0.470447 0.435379
vt 0.513929 0.516202
vt 0.500665 0.522457
vt 0.621750 0.926635
vt 0.597287 0.924478
vt 0.602992 0.803768
vt 0.635567 0.802409
vt 0.620052 0.975602
vt 0.598155 0.974174
vt 0.586471 0.924951
vt 0.590505 0.803158
vt 0.612018 0.700287
vt 0.647981 0.696852
vt 0.641579 0.925733
vt 0.656245 0.809653
vt 0.587899 0.976262
vt 0.570825 0.924244
vt 0.573157 0.801447
vt 0.591277 0.700570
vt 0.620975 0.608463
vt 0.657925 0.602466
vt 0.674366 0.699185
vt 0.572386 0.975267
vt 0.540750 0.924462
vt 0.536235 0.799233
vt 0.568972 0.699836
vt 0.591128 0.607726
vt 0.630405 0.547879
vt 0.660287 0.539423
vt 0.535522 0.698457
vt 0.563262 0.608692
vt 0.592261 0.543428
vt 0.737913 0.953655
vt 0.703160 0.940870
vt 0.737284 0.817059
vt 0.778188 0.827292
vt 0.682079 0.989818
vt 0.704425 1.000000
vt 0.674508 0.933246
vt 0.695970 0.815591
vt 0.764866 0.713069
vt 0.800013 0.723513
vt 0.662442 0.983601
vt 0.721969 0.704334
vt 0.789125 0.620151
vt 0.817693 0.632761
vt 0.651101 0.980687
vt 0.660492 0.929943
vt 0.745690 0.605057
vt 0.843099 0.550208
vt 0.813084 0.532289
vt 0.700471 0.702434
vt 0.721530 0.603681
vt 0.765098 0.529672
vt 0.725615 0.537498
vt 0.394650 0.000000
vt 0.414257 0.006729
vt 0.397206 0.025847
vt 0.375939 0.005787
vt 0.423585 0.017034
vt 0.407996 0.035823
vt 0.382080 0.042596
vt 0.371997 0.027462
vt 0.416728 0.043997
vt 0.424875 0.026353
vt 0.391083 0.047615
vt 0.406266 0.050776
vt 0.504732 0.929308
vt 0.492209 0.798452
vt 0.549344 0.976537
vt 0.528053 0.980857
vt 0.494919 0.693252
vt 0.493117 0.603162
vt 0.531828 0.608924
vt 0.514424 0.527796
vt 0.470969 0.520119
vt 0.558171 0.537597
vt 0.678368 0.813104
vt 0.634167 0.975835
vt 0.693723 0.600973
vt 0.695229 0.535837
vt 0.334799 0.574767
vt 0.387073 0.558145
vt 0.398031 0.602191
vt 0.358345 0.625586
vt 0.324817 0.529834
vt 0.378588 0.510609
vt 0.451667 0.550101
vt 0.432967 0.605458
vt 0.347378 0.405303
vt 0.281995 0.415537
vt 0.486727 0.495681
vt 0.433953 0.397547
vt 0.252957 0.286643
vt 0.336586 0.302561
vt 0.421111 0.290960
vt 0.247146 0.262870
vt 0.332402 0.267554
vt 0.423010 0.252230
vt 0.240453 0.182399
vt 0.320277 0.175996
vt 0.404866 0.148094
vt 0.228131 0.098041
vt 0.312046 0.103298
vt 0.384002 0.071749
vt 0.221462 0.049243
vt 0.306827 0.060628
vt 0.369238 0.029584
vt 0.215289 0.013725
vt 0.302373 0.028826
vt 0.356256 0.000000
vt 0.088928 0.690813
vt 0.058159 0.686141
vt 0.047469 0.604451
vt 0.103081 0.597193
vt 0.003454 0.549744
vt 0.106465 0.562247
vt 0.127683 0.687748
vt 0.167285 0.600842
vt 0.088592 0.448901
vt 0.009925 0.430526
vt 0.172780 0.556786
vt 0.173229 0.441810
vt 0.010024 0.320157
vt 0.085584 0.303969
vt 0.141935 0.300371
vt 0.013068 0.286945
vt 0.083441 0.273981
vt 0.138541 0.270642
vt 0.197914 0.296999
vt 0.220879 0.428902
vt 0.007776 0.189813
vt 0.070882 0.177814
vt 0.131263 0.175770
vt 0.191856 0.269124
vt 0.186735 0.178302
vt 0.060847 0.099084
vt 0.122236 0.086506
vt 0.179509 0.090190
vt 0.056122 0.055109
vt 0.118311 0.037182
vt 0.176069 0.041453
vt 0.053671 0.023003
vt 0.115966 0.002413
vt 0.172818 0.005524
vt 0.918188 0.370965
vt 0.939640 0.367494
vt 0.940375 0.404962
vt 0.917726 0.407907
vt 0.934428 0.335982
vt 0.894683 0.344817
vt 0.978740 0.365008
vt 0.969005 0.399841
vt 0.940263 0.438462
vt 0.909894 0.436964
vt 0.995668 0.336507
vt 0.976238 0.426778
vt 0.939020 0.473171
vt 0.887332 0.463954
vt 0.997297 0.449026
vt 0.890735 0.225249
vt 0.927109 0.275241
vt 0.878220 0.279303
vt 0.844454 0.223959
vt 0.904828 0.341846
vt 0.848153 0.349503
vt 0.798599 0.307025
vt 0.902963 0.110947
vt 0.956409 0.111426
vt 0.967592 0.158164
vt 0.931736 0.194828
vt 0.941945 0.029500
vt 0.983193 0.044651
vt 0.856860 0.178222
vt 0.899016 0.231430
vt 0.932746 0.000000
vt 0.856073 0.048003
vt 0.815663 0.115694
vt 0.247093 0.613955
vt 0.332078 0.656409
vt 0.239397 0.547093
vt 0.252243 0.667120
vt 0.306683 0.675437
vt 0.200295 0.712937
vt 0.163202 0.688321
vt 0.002023 0.113471
vt 0.000000 0.068461
vt 0.002119 0.035529
vn -0.079376 0.497761 0.863675
vn 0.374753 0.597944 0.708536
vn -0.365462 0.929614 0.047481
vn -0.788315 0.247646 0.563233
vn 0.591672 0.701608 0.397077
vn -0.274332 0.959551 -0.063282
vn -0.757281 0.264292 -0.597222
vn -0.407147 0.348814 -0.844133
vn -0.970049 0.174581 -0.168897
vn 0.103690 0.133960 0.985547
vn -0.750710 -0.160862 0.640748
vn -0.710223 -0.248764 0.658559
vn 0.107078 0.076751 0.991284
vn 0.641932 0.299646 0.705788
vn 0.649932 0.302299 0.697283
vn 0.857590 0.390707 0.334496
vn 0.850368 0.356065 0.387417
vn 0.789839 0.381127 -0.480517
vn 0.913200 0.389593 -0.119510
vn 0.907927 0.399701 -0.126123
vn 0.792989 0.369254 -0.484582
vn 0.182141 0.202451 -0.962205
vn 0.191490 0.156860 -0.968879
vn -0.700093 -0.220663 -0.679100
vn -0.699375 -0.142151 -0.700477
vn -0.306171 0.024271 -0.951667
vn -0.308778 -0.046014 -0.950021
vn -0.947850 -0.234094 -0.216286
vn -0.923980 -0.325357 -0.201008
vn 0.038562 0.389572 -0.920188
vn 0.632033 0.563519 -0.531959
vn 0.805474 0.569893 -0.162587
vn 0.583194 0.280951 0.762202
vn 0.838845 0.412601 0.355105
vn 0.890224 0.431446 -0.146137
vn 0.746758 0.355433 -0.562157
vn 0.169794 0.096838 -0.980710
vn -0.351985 -0.115489 -0.928854
vn -0.753850 -0.296149 -0.586520
vn -0.919155 -0.376683 -0.115170
vn -0.653137 -0.275889 0.705193
vn 0.050617 0.029328 0.998287
vn -0.934770 -0.354072 -0.028954
vn -0.805688 -0.308029 -0.505950
vn -0.704144 -0.308959 -0.639317
vn -0.929642 -0.363205 0.062027
vn -0.613186 -0.192653 0.766086
vn -0.653545 -0.219855 0.724254
vn -0.204656 0.048351 0.977639
vn -0.093259 0.035429 0.995011
vn 0.128311 0.319986 0.938693
vn 0.398671 0.308484 0.863655
vn -0.396375 -0.136823 -0.907836
vn -0.329510 -0.133348 -0.934688
vn 0.650552 0.355089 -0.671338
vn 0.436604 0.527300 -0.728925
vn 0.090833 0.228927 -0.969197
vn 0.145849 0.103030 -0.983927
vn 0.847088 0.499195 -0.182338
vn 0.673897 0.678041 -0.293466
vn 0.529755 0.729038 0.433432
vn 0.756188 0.514886 0.403822
vn -0.176550 0.884762 0.431308
vn -0.171057 0.934974 -0.310747
vn -0.099165 0.716911 -0.690076
vn -0.686092 0.486348 0.541058
vn -0.829973 0.536054 -0.154246
vn -0.556411 0.412077 -0.721526
vn -0.776096 0.323937 0.541054
vn -0.915423 0.389444 -0.101658
vn -0.594627 0.269139 -0.757617
vn -0.798611 0.260059 0.542761
vn -0.937234 0.322637 -0.132276
vn -0.565444 0.224607 -0.793615
vn -0.489706 0.197424 -0.849242
vn -0.907337 0.331487 -0.258564
vn -0.751079 0.583919 -0.308089
vn -0.312808 0.436389 -0.843633
vn -0.798737 0.310639 0.515289
vn -0.680064 0.573943 0.456183
vn -0.369243 0.203291 0.906826
vn -0.283110 0.511630 0.811224
vn -0.356906 0.150270 0.921974
vn -0.364852 0.120564 0.923227
vn -0.255673 0.224438 0.940350
vn -0.052343 0.327328 0.943460
vn -0.013085 0.047132 0.998803
vn -0.327985 -0.170420 0.929184
vn -0.854587 -0.407565 0.321827
vn -0.591166 -0.234207 -0.771796
vn 0.015909 -0.046581 -0.998788
vn 0.063750 0.270309 -0.960661
vn -0.013913 0.119835 -0.992696
vn 0.476395 -0.100796 -0.873435
vn -0.013936 0.042288 -0.999008
vn 0.527715 -0.181049 -0.829902
vn 0.040878 0.017184 -0.999016
vn 0.122906 0.006858 0.992395
vn 0.178466 -0.055014 0.982407
vn 0.611590 -0.273908 0.742248
vn 0.720281 -0.282638 0.633491
vn 0.909700 -0.399463 0.113469
vn 0.929126 -0.369731 0.004955
vn 0.850304 -0.317238 -0.419932
vn 0.845490 -0.328403 -0.421068
vn 0.533325 -0.168658 -0.828927
vn 0.857979 -0.286304 -0.426500
vn 0.949031 -0.312319 0.042385
vn 0.724402 -0.225775 0.651358
vn 0.200575 -0.059056 0.977897
vn 0.092586 0.019388 -0.995516
vn 0.226332 0.294073 -0.928598
vn 0.646806 0.233668 -0.725976
vn 0.562846 -0.085218 -0.822157
vn 0.934563 0.172949 -0.310935
vn 0.913675 -0.175158 -0.366766
vn 0.962892 0.168401 0.210903
vn 0.973120 -0.152616 0.172470
vn 0.692725 -0.049302 0.719515
vn 0.685497 0.325479 0.651274
vn 0.197766 0.067570 0.977918
vn 0.245779 0.418796 0.874187
vn 0.279709 0.954830 -0.100310
vn 0.403021 -0.269274 0.874680
vn 0.865643 -0.442922 0.233417
vn 0.700688 -0.198688 -0.685244
vn 0.030562 -0.060055 0.997727
vn -0.873133 -0.082804 0.480397
vn -0.702835 -0.055804 -0.709161
vn -0.092319 -0.030473 -0.995263
vn 0.787576 -0.181194 -0.588977
vn 0.878801 -0.253825 0.404081
vn 0.865398 -0.229741 -0.445315
vn 0.041995 -0.077860 -0.996080
vn -0.681198 0.059868 -0.729647
vn -0.948872 0.153552 0.275795
vn -0.081615 0.063850 0.994617
vn 0.847302 -0.151785 0.508961
vn -0.669035 0.085458 -0.738301
vn -0.962647 0.217612 0.161106
vn 0.183350 -0.126570 -0.974865
vn 0.927249 -0.239391 -0.287925
vn 0.866389 -0.136795 0.480268
vn -0.141685 0.114266 0.983295
vn -0.225085 0.041142 0.973470
vn -0.953061 -0.080120 0.291986
vn -0.943868 -0.237362 0.229721
vn -0.211757 -0.020327 0.977111
vn 0.843721 0.155460 0.513777
vn 0.823191 0.221663 0.522707
vn 0.932316 0.226356 -0.282046
vn 0.948775 0.103739 -0.298435
vn 0.403485 0.058356 -0.913124
vn 0.416451 -0.021429 -0.908906
vn -0.660659 -0.226876 -0.715581
vn -0.678918 -0.139502 -0.720839
vn -0.929564 -0.333732 0.156631
vn -0.624313 -0.238634 -0.743833
vn -0.640657 -0.297701 -0.707766
vn -0.922879 -0.370221 0.105978
vn -0.226920 -0.069848 0.971406
vn -0.268308 -0.153422 0.951038
vn 0.793491 0.259472 0.550497
vn 0.754901 0.155088 0.637238
vn 0.919631 0.313064 -0.237215
vn 0.961138 0.203990 -0.186019
vn 0.497878 0.069162 -0.864485
vn 0.454230 0.163672 -0.875721
vn 0.472272 -0.596689 -0.648784
vn 0.788566 -0.614441 0.025021
vn -0.095050 -0.981758 0.164674
vn -0.439185 -0.814825 -0.378386
vn -0.698580 -0.704630 0.124432
vn -0.246506 -0.756453 0.605817
vn 0.585560 -0.506752 0.632710
s 1
g SlingshotWood_low
usemtl initialShadingGroup
f 1/119/1 5/120/2 8/121/3 9/122/4
f 46/123/5 47/124/6 8/121/3 5/120/2
f 6/125/7 8/121/3 47/124/6 48/129/8
f 9/122/4 8/121/3 6/125/7 4/126/9
f 17/87/10 10/131/11 24/132/12 25/88/13
f 16/80/14 17/87/10 25/88/13 18/81/15
f 44/74/16 45/73/17 16/80/14 18/81/15
f 14/67/18 15/68/19 19/69/20 20/70/21
f 13/77/22 14/67/18 20/70/21 21/78/23
f 22/103/24 12/102/25 49/111/26 50/141/27
f 11/97/28 12/102/25 22/103/24 23/98/29
f 10/96/11 11/97/28 23/98/29 24/99/12
f 4/100/9 11/97/28 10/96/11 9/101/4
f 12/102/25 11/97/28 4/100/9 6/106/7
f 48/110/8 49/111/26 12/102/25 6/106/7
f 14/67/18 13/77/22 3/142/30 7/71/31
f 15/68/19 14/67/18 7/71/31 2/72/32
f 16/80/14 45/73/17 46/79/5 5/86/2
f 17/87/10 16/80/14 5/86/2 1/133/1
f 1/133/1 9/134/4 10/131/11 17/87/10
f 111/89/33 112/82/34 44/74/16 18/81/15
f 20/70/21 19/69/20 103/75/35 104/76/36
f 21/78/23 20/70/21 104/76/36 105/85/37
f 106/115/38 107/107/39 22/103/24 50/141/27
f 23/98/29 22/103/24 107/107/39 108/104/40
f 24/99/12 23/98/29 108/104/40 109/105/41
f 25/88/13 24/132/12 109/135/41 110/93/42
f 18/81/15 25/88/13 110/93/42 111/89/33
f 28/108/43 29/112/44 34/117/45 35/114/46
f 36/113/47 26/109/48 28/108/43 35/114/46
f 37/138/49 27/137/50 26/136/48 36/139/47
f 38/140/51 33/94/52 27/137/50 37/138/49
f 51/116/53 52/118/54 34/117/45 29/112/44
f 31/84/55 40/92/56 39/144/57 30/143/58
f 32/83/59 41/91/60 40/92/56 31/84/55
f 38/140/51 42/95/61 43/90/62 33/94/52
f 43/90/62 42/95/61 41/91/60 32/83/59
f 112/82/34 103/75/35 19/69/20 44/74/16
f 19/69/20 15/68/19 45/73/17 44/74/16
f 46/79/5 45/73/17 15/68/19 2/72/32
f 7/127/31 47/124/6 46/123/5 2/128/32
f 48/129/8 47/124/6 7/127/31 3/130/30
f 13/77/22 49/111/26 48/110/8 3/142/30
f 49/111/26 13/77/22 21/78/23 50/141/27
f 50/141/27 21/78/23 105/85/37 106/115/38
f 30/143/58 39/144/57 52/118/54 51/116/53
f 42/209/61 53/210/63 54/211/64 41/212/60
f 54/211/64 55/217/65 40/218/56 41/212/60
f 56/215/66 57/216/67 54/211/64 53/210/63
f 57/216/67 58/220/68 55/217/65 54/211/64
f 57/1/67 56/2/66 59/3/69 60/4/70
f 58/9/68 57/1/67 60/4/70 61/10/71
f 60/4/70 59/3/69 62/7/72 63/8/73
f 61/10/71 60/4/70 63/8/73 64/14/74
f 122/18/75 113/13/76 65/17/77 66/20/78
f 113/13/76 114/12/79 67/16/80 65/17/77
f 114/12/79 115/15/81 68/19/82 67/16/80
f 70/6/83 69/11/84 62/7/72 59/3/69
f 59/3/69 56/2/66 71/5/85 70/6/83
f 71/219/85 56/215/66 53/210/63 72/213/86
f 72/213/86 53/210/63 42/209/61 38/214/51
f 73/231/87 72/232/86 38/233/51 37/234/49
f 74/237/88 73/231/87 37/234/49 36/238/47
f 75/146/89 74/151/88 36/152/47 35/147/46
f 76/145/90 75/146/89 35/147/46 34/148/45
f 77/242/91 76/145/90 34/148/45 52/243/54
f 78/245/92 77/242/91 52/243/54 39/246/57
f 55/217/65 78/221/92 39/222/57 40/218/56
f 58/220/68 79/223/93 78/221/92 55/217/65
f 79/247/93 80/248/94 77/242/91 78/245/92
f 81/54/95 79/55/93 58/9/68 61/10/71
f 79/55/93 81/54/95 82/30/96 80/29/94
f 61/10/71 64/14/74 83/56/97 81/54/95
f 84/235/98 71/236/85 72/232/86 73/231/87
f 84/59/98 85/34/99 70/60/83 71/61/85
f 87/22/100 86/21/101 85/34/99 84/59/98
f 86/21/101 87/22/100 88/23/102 89/24/103
f 91/25/104 90/26/105 89/24/103 88/23/102
f 90/26/105 91/25/104 80/29/94 82/30/96
f 82/30/96 81/54/95 83/56/97 92/36/106
f 90/26/105 82/30/96 92/36/106 93/31/107
f 89/24/103 90/26/105 93/31/107 94/27/108
f 86/21/101 89/24/103 94/27/108 95/28/109
f 85/34/99 86/21/101 95/28/109 96/35/110
f 85/34/99 96/35/110 69/62/84 70/60/83
f 121/57/111 122/18/75 66/20/78 97/58/112
f 98/42/113 120/40/114 121/57/111 97/58/112
f 99/41/115 119/37/116 120/40/114 98/42/113
f 100/38/117 118/32/118 119/37/116 99/41/115
f 117/33/119 118/32/118 100/38/117 101/39/120
f 115/64/81 116/63/121 102/65/122 68/66/82
f 116/63/121 117/33/119 101/39/120 102/65/122
f 104/76/36 103/75/35 32/83/59 31/84/55
f 105/85/37 104/76/36 31/84/55 30/143/58
f 106/115/38 105/85/37 30/143/58 51/116/53
f 29/112/44 107/107/39 106/115/38 51/116/53
f 108/104/40 107/107/39 29/112/44 28/108/43
f 109/105/41 108/104/40 28/108/43 26/109/48
f 110/93/42 109/135/41 26/136/48 27/137/50
f 111/89/33 110/93/42 27/137/50 33/94/52
f 43/90/62 112/82/34 111/89/33 33/94/52
f 32/83/59 103/75/35 112/82/34 43/90/62
f 63/8/73 62/7/72 114/12/79 113/13/76
f 69/11/84 115/15/81 114/12/79 62/7/72
f 69/62/84 96/35/110 116/63/121 115/64/81
f 95/28/109 117/33/119 116/63/121 96/35/110
f 95/28/109 94/27/108 118/32/118 117/33/119
f 119/37/116 118/32/118 94/27/108 93/31/107
f 120/40/114 119/37/116 93/31/107 92/36/106
f 121/57/111 120/40/114 92/36/106 83/56/97
f 64/14/74 122/18/75 121/57/111 83/56/97
f 64/14/74 63/8/73 113/13/76 122/18/75
f 101/43/120 100/44/117 123/45/123 102/46/122
f 99/47/115 98/48/113 123/45/123 100/44/117
f 66/51/78 123/45/123 98/48/113 97/52/112
f 67/49/80 68/50/82 102/46/122 123/45/123
f 67/49/80 123/45/123 66/51/78 65/53/77
f 87/239/100 84/235/98 73/231/87 126/240/124
f 88/175/102 87/176/100 126/177/124 125/178/125
f 91/181/104 88/175/102 125/178/125 124/182/126
f 77/242/91 80/248/94 91/181/104 124/182/126
f 74/237/88 127/241/127 126/240/124 73/231/87
f 75/146/89 128/150/128 127/155/127 74/151/88
f 129/149/129 128/150/128 75/146/89 76/145/90
f 130/244/130 129/149/129 76/145/90 77/242/91
f 131/185/131 130/244/130 77/242/91 124/182/126
f 132/180/132 131/185/131 124/182/126 125/178/125
f 126/177/124 127/179/127 132/180/132 125/178/125
f 130/244/130 131/185/131 133/186/133 134/194/134
f 129/149/129 130/244/130 134/194/134 135/154/135
f 136/153/136 128/150/128 129/149/129 135/154/135
f 137/156/137 127/155/127 128/150/128 136/153/136
f 138/183/138 132/180/132 127/179/127 137/184/137
f 133/186/133 131/185/131 132/180/132 138/183/138
f 136/153/136 135/154/135 139/157/139 140/158/140
f 135/154/135 134/194/134 141/193/141 139/157/139
f 133/186/133 142/189/142 141/193/141 134/194/134
f 138/183/138 143/188/143 142/189/142 133/186/133
f 137/184/137 144/187/144 143/188/143 138/183/138
f 136/153/136 140/158/140 144/159/144 137/156/137
f 168/162/145 163/161/146 145/164/147 146/165/148
f 167/191/149 168/190/145 146/195/148 147/196/150
f 148/197/151 166/192/152 167/191/149 147/196/150
f 149/199/153 165/198/154 166/192/152 148/197/151
f 150/163/155 164/160/156 165/198/154 149/199/153
f 163/161/146 164/160/156 150/163/155 145/164/147
f 162/167/157 157/166/158 173/169/159 174/170/160
f 161/168/161 162/167/157 174/170/160 175/171/162
f 160/200/163 161/249/161 175/250/162 170/203/164
f 159/201/165 160/200/163 170/203/164 171/204/166
f 171/204/166 172/205/167 158/202/168 159/201/165
f 172/205/167 173/169/159 157/166/158 158/202/168
f 158/202/168 157/166/158 150/163/155 149/199/153
f 159/201/165 158/202/168 149/199/153 148/197/151
f 147/196/150 160/200/163 159/201/165 148/197/151
f 146/195/148 161/249/161 160/200/163 147/196/150
f 146/165/148 145/164/147 162/167/157 161/168/161
f 145/164/147 150/163/155 157/166/158 162/167/157
f 139/157/139 164/160/156 163/161/146 140/158/140
f 165/198/154 164/160/156 139/157/139 141/193/141
f 166/192/152 165/198/154 141/193/141 142/189/142
f 167/191/149 166/192/152 142/189/142 143/188/143
f 143/188/143 144/187/144 168/190/145 167/191/149
f 144/159/144 140/158/140 163/161/146 168/162/145
f 156/224/169 155/225/170 169/226/171 151/227/172
f 152/230/173 151/227/172 169/226/171 153/229/174
f 155/225/170 154/228/175 153/229/174 169/226/171
f 171/204/166 170/203/164 154/206/175 155/207/170
f 156/208/169 172/205/167 171/204/166 155/207/170
f 151/172/172 173/169/159 172/205/167 156/208/169
f 174/170/160 173/169/159 151/172/172 152/173/173
f 175/171/162 174/170/160 152/173/173 153/174/174
f 170/203/164 175/250/162 153/251/174 154/206/175
